<?xml version="1.0" encoding="utf-8"?>
<!-- Generator: Adobe Illustrator 23.0.5, SVG Export Plug-In . SVG Version: 6.00 Build 0)  -->
<svg version="1.1" id="Capa_1" xmlns="http://www.w3.org/2000/svg" xmlns:xlink="http://www.w3.org/1999/xlink" x="0px" y="0px"
	 viewBox="0 0 217 147" style="enable-background:new 0 0 217 147;" xml:space="preserve">
<style type="text/css">
	.st0{fill:#FFFFFF;}
	.st1{font-family:'Epson-Pixeled';}
	.st2{font-size:41.8638px;}
</style>
<g transform="translate(0.000000,147.000000) scale(0.100000,-0.100000)">
	<path class="st0" d="M213.9,901.5v-19.6h19.6H253v19.6v19.6h-19.6h-19.6v-19.6H213.9z"/>
	<path class="st0" d="M288.5,901.5v-19.6h18h18v-18v-18h-35.9h-35.9v-19.6v-19.6h45.7H344v-18c0-9.3,0.1-17.9,0.1-17.9
		s4.5-0.1,8-0.1c3.4,0,8.2,0.1,8.2,0.1s0-8.5,0-18v-18h-35.9h-35.9v-18v-18h35.9h35.9v-18v-18h-35.9h-35.9v-19.6V624h18h18v-18
		c0-9.4-0.1-18-0.1-18s5.3,0,9.9,0h9.8v-19.6v-19.6h184.4h184.4V735v186.1H500.7H288.5V901.5z M562.7,735v-71.8h-35.9h-35.9V735
		v71.8h35.9h35.9V735z"/>
	<path class="st0" d="M142,826.4v-19.6h35.9h35.9v19.6V846h-35.9H142V826.4z"/>
	<path class="st0" d="M177.9,753v-18h37.5H253v18v18h-37.5H178v-18H177.9z"/>
	<path class="st0" d="M142,679.5v-19.6h55.5H253v19.6v19.6h-55.5H142V679.5z"/>
	<path class="st0" d="M197.5,606.1v-18h27.7H253v18v18h-27.7h-27.7v-18H197.5z"/>
	<path class="st0" d="M272.6,568.5v-19.6h18h18v19.6v19.6h-18h-18V568.5z"/>
</g>
<path class="st0" d="M51.7,58.2"/>
<text transform="matrix(1 0 0 1 75.7058 91.6811)" class="st0 st1 st2">ASIS</text>
</svg>
