<?xml version="1.0" encoding="utf-8"?>
<!-- Generator: Adobe Illustrator 23.0.5, SVG Export Plug-In . SVG Version: 6.00 Build 0)  -->
<svg version="1.1" xmlns="http://www.w3.org/2000/svg" xmlns:xlink="http://www.w3.org/1999/xlink" x="0px" y="0px"
	 viewBox="0 0 875 221" style="enable-background:new 0 0 875 221;" xml:space="preserve">
<style type="text/css">
	.st0{fill:#FFFFFF;}
	.st1{font-family:'MingLiU-ExtB';}
	.st2{font-size:40px;}
	.st3{letter-spacing:60;}
</style>
<g id="Capa_1">
	<g transform="translate(0.000000,221.000000) scale(0.100000,-0.100000)">
		<path class="st0" d="M590,1806v-34l373-4c356-4,375-5,437-27c151-53,283-169,371-326c127-228,126-500-4-720
			c-56-96-183-221-272-267c-134-69-145-71-507-76l-328-4v637v636l333-3l258.8-7.9c48.6-1.5,96.7-11,142.2-28.1l0,0
			c92-43,209-160,253-253c114-238,74-485-107-665c-83-82-180-139-265-153c-34-6-116-11-183-11H970v445v445h-35h-35V910V430h183
			c272,0,357,29,503,175c88,87,138,167,176,280c34,104,32,260-6,369c-55,161-137,268-273,357c-130,84-120,83-530,87l-363,3V991V280
			h361c296,0,372,3,423,16c238,61,454,280,532,539c24,78,28,107,28,225c0,113-3,148-23,215c-73,250-247,444-479,534l0,0
			c-44.3,17.2-91.4,26.2-138.9,26.6L978,1838l-388,3V1806z"/>
		<path class="st0" d="M2520,1631v-61h-60h-60v-270v-270h60h60v-61v-61l148,5c81,2,164,10,184,16c68,21,154,88,197,152
			c52,77,65,125,65,224c-1,116-29,182-113,266c-94,94-141,110-333,117l-148,4V1631z M2870,1609c77-36,121-77,161-151
			c32-59,34-69,34-158c0-85-3-101-30-154c-33-65-93-124-163-158c-40-20-66-23-179-26l-133-4v35v34l118,6c134,6,172,18,237,78
			c109,101,107,281-5,382c-61,55-98,66-237,74l-113,6v34v35l128-4C2800,1635,2822,1632,2870,1609z M2520,1300v-220h-40h-40v220v220
			h40h40V1300z M2789,1510c91-26,161-118,161-209c0-50-35-135-66-163c-48-42-105-58-216-58h-108v213c0,118,2,220.9,3.2,225.7
			C2573.8,1525.3,2751,1521,2789,1510z"/>
		<path class="st0" d="M3380,1300V910h80h80v390v390h-80h-80V1300z M3500,1300V960h-40h-40v340v340h40h40V1300z"/>
		<path class="st0" d="M4135,1676c-305-74-401-454-168-666c83-76,138-93,321-98l152-4v61v61h60h60v175v175h-85h-85v-150v-150h-98
			c-141,0-202,24-250,96c-60,92-50,197,27,274c59,59,99,70,250,70h121v85v85l-127-1C4242,1689,4163,1683,4135,1676z M4390,1607v-34
			l-115-6c-124-7-174-22-232-71c-81-68-108-209-59-311c50-106,125-145,293-153l113-5v-34v-35l-132,4c-122,3-138,6-186,31
			c-70,37-128,97-160,166c-22,47-26,70-26,141c1,101,21,156,85,225c83,90,146,113,307,114l112,1V1607z M4510,1210v-130h-35h-35v130
			v130h35h35V1210z"/>
		<path class="st0" d="M4850,1300V910h80h80v390v390h-80h-80V1300z M4970,1300V960h-40h-40v340v340h40h40V1300z"/>
		<path class="st0" d="M5260,1605v-85h140h140v-305V910h85h85v305v305h140h140v85v85h-165h-165v-60v-60h-35h-35v60v60h-165h-165
			V1605z M5540,1605v-35h-115h-115v35v35h115h115V1605z M5940,1605v-35h-115h-115v35v35h115h115V1605z M5660,1240V960h-35h-35v280
			v280h35h35V1240z"/>
		<path class="st0" d="M7190,1360v-330h60h60v-60v-60h300h300v85v85h-275h-275v305v305h-85h-85V1360z M7310,1360v-280h-35h-35v280
			v280h35h35V1360z M7870,995v-35h-255h-255v35v35h255h255V995z"/>
		<path class="st0" d="M6422,1660c-6-14-53-122-106-240l-95-215l64-5l63-5l-13-32c-13-31-16-32-81-35l-67-3l-48-108l-48-107h92h93
			l35,83l35,82h148h149l35-82l35-83h93h93l-48,108l-48,107l-68,5c-66,5-69,6-82,38l-13,32h66c37,0,64,4,62,10
			c-14,41-204,460-209,460c-3,0-19-30-35-67l-29-67l-32,74C6434,1680,6431,1683,6422,1660z M6453,1514l17-35l-48-112
			c-48-112-48-112-85-115c-20-2-37,1-37,7c0,16,122,291,130,291C6433,1550,6444,1534,6453,1514z M6631,1408c35-77,66-145,68-150
			c1-5-16-8-40-6l-44,3l-48,110c-48,109-48,111-32,148c8,20,19,37,24,37C6563,1550,6596,1486,6631,1408z M6533,1332
			c15-35,27-68,27-73s-29-9-65-9s-65,4-65,9c0,20,64,151,70,144C6504,1399,6519,1367,6533,1332z M6605,1163l14-33h-125
			c-69,0-123,4-120,9c3,4,10,20,16,35c10,27,10,27,106,24l96-3L6605,1163z M6275,1024c-14-31-25-58-25-60s-18-4-40-4s-40,3-40,8
			c0,4,10,31,22,59c23,52,24,53,65,53h43L6275,1024z M6795,1030c14-27,25-54,25-60c0-5-18-10-40-10s-40,2-40,4s-11,29-25,60l-25,56
			h40C6768,1080,6771,1077,6795,1030z"/>
		<path class="st0" d="M740,986V430h40h40v521v520l233-3c231-3,232-3,284-30c151-80,245-258,222-423c-17-127-117-268-231-324
			c-56-29-69-31-165-31h-103v-40v-40h83c153,0,251,42,357,150c50,52,113,168,129,240c46,202-73.3,436.6-255,531l-35.7,17.8
			c-21.3,10.6-44.1,15.2-68.5,16.5L1023,1538l-283,3V986z"/>
	</g>
	<text transform="matrix(1 0 0 1 237.3178 190.2876)" class="st0 st1 st2 st3">DREAMS</text>
</g>
<g id="Capa_2">
</g>
</svg>
